<svg width="117" height="117" viewBox="0 0 117 117" fill="none" xmlns="http://www.w3.org/2000/svg">
<path d="M117 58.5C117 90.8087 90.8087 117 58.5 117C26.1913 117 0 90.8087 0 58.5C0 26.1913 26.1913 0 58.5 0C90.8087 0 117 26.1913 117 58.5Z" fill="#27AE60"/>
<path d="M73.7638 33.461C73.7638 40.6726 70.595 47.1194 65.678 52.1457C70.9229 54.5496 74.6379 59.1388 74.6379 66.569C74.6379 84.8166 58.6849 99.5677 40.6558 99.5677C39.3446 99.5677 38.689 98.5843 38.689 97.3823C38.689 95.6341 39.6724 94.1043 39.8909 92.2468C40.2188 89.078 40.1095 85.6907 40.1095 82.522C40.1095 71.5953 40.1095 60.7778 40.1095 49.9603C40.2188 44.2784 39.7817 31.9312 41.4207 27.0142C42.7319 23.2991 47.3211 17.508 51.6918 17.508C62.0722 17.508 73.7638 21.1138 73.7638 33.461ZM51.5826 86.1278C58.5757 85.0351 62.7278 83.3961 62.7278 75.3103C62.7278 68.3172 57.8108 64.93 52.0196 63.5095C52.0196 67.2246 52.0196 70.8304 52.0196 74.5455C51.9104 78.3698 52.0196 82.3035 51.5826 86.1278ZM52.0196 49.414C57.1552 49.414 61.8537 48.4306 61.8537 42.3116C61.8537 36.1927 57.483 33.2425 52.1289 31.822C52.0196 37.7224 52.0196 43.6228 52.0196 49.414Z" fill="#006937"/>
<path d="M77.4621 33.461C77.4621 40.6726 74.2933 47.1194 69.3763 52.1457C74.6211 54.5496 78.3362 59.1388 78.3362 66.569C78.3362 84.8166 62.3832 99.5677 44.3541 99.5677C43.0429 99.5677 42.3873 98.5843 42.3873 97.3823C42.3873 95.6341 43.3707 94.1043 43.5892 92.2468C43.917 89.078 43.8078 85.6907 43.8078 82.522C43.8078 71.5953 43.8078 60.7778 43.8078 49.9603C43.917 44.2784 43.48 31.9312 45.119 27.0142C46.4302 23.2991 51.0194 17.508 55.3901 17.508C65.7705 17.508 77.4621 21.1138 77.4621 33.461ZM55.2808 86.1278C62.2739 85.0351 66.4261 83.3961 66.4261 75.3103C66.4261 68.3172 61.5091 64.93 55.7179 63.5095C55.7179 67.2246 55.7179 70.8304 55.7179 74.5455C55.6086 78.3698 55.7179 82.3035 55.2808 86.1278ZM55.7179 49.414C60.8535 49.414 65.5519 48.4306 65.5519 42.3116C65.5519 36.1927 61.1813 33.2425 55.8272 31.822C55.7179 37.7224 55.7179 43.6228 55.7179 49.414Z" fill="white"/>
</svg>
