<svg width="751" height="194" viewBox="0 0 751 194" fill="none" xmlns="http://www.w3.org/2000/svg">
<g filter="url(#filter0_d_1252_2)">
<path d="M88 37.25C88 53.75 80.75 68.5 69.5 80C81.5 85.5 90 96 90 113C90 154.75 53.5 188.5 12.25 188.5C9.25 188.5 7.75 186.25 7.75 183.5C7.75 179.5 10 176 10.5 171.75C11.25 164.5 11 156.75 11 149.5C11 124.5 11 99.75 11 75C11.25 62 10.25 33.75 14 22.5C17 14 27.5 0.749992 37.5 0.749992C61.25 0.749992 88 8.99999 88 37.25ZM37.25 157.75C53.25 155.25 62.75 151.5 62.75 133C62.75 117 51.5 109.25 38.25 106C38.25 114.5 38.25 122.75 38.25 131.25C38 140 38.25 149 37.25 157.75ZM38.25 73.75C50 73.75 60.75 71.5 60.75 57.5C60.75 43.5 50.75 36.75 38.5 33.5C38.25 47 38.25 60.5 38.25 73.75ZM131.309 144.5C128.559 159.5 125.559 173 113.059 183.5C110.059 186 106.309 188.5 102.059 188.5C99.0586 188.5 97.5586 186.25 97.5586 183.5C97.5586 178.5 100.309 175.5 102.059 171.25C103.559 168.25 104.059 163 104.809 159.5C112.309 122 117.559 83.75 125.559 46.25C129.059 30 131.559 16.75 145.059 5.49999C148.059 2.99999 152.309 0.749992 156.309 0.749992C161.559 0.749992 163.059 4.74999 164.559 8.99999C169.059 23 170.809 38.25 173.559 52.75C178.059 77.5 182.309 102.5 186.809 127.25C188.059 134.25 190.309 151.75 193.309 157.25C194.809 159.75 196.309 160.25 196.309 163.25C196.309 172.5 183.559 188.5 173.809 188.5C165.559 188.5 162.559 164.5 161.309 158.25C159.809 150.5 158.559 142.75 157.059 135C148.309 143.25 142.809 144.5 131.309 144.5ZM153.559 114C150.809 98.5 148.059 83 145.309 67.75C142.309 82.75 139.809 98 137.059 113.25C139.309 114.25 145.809 114 148.059 114C149.809 114 151.809 114 153.559 114ZM239.637 156.5C248.637 154.5 258.137 154.5 267.387 154.5C273.387 154.5 286.137 154.75 286.137 163.25C286.137 172.5 273.387 188.5 263.637 188.5C260.137 188.5 260.637 186.25 258.137 185.5C256.137 185 252.637 184.75 250.387 184.75C242.637 184.75 234.137 184.75 226.637 186.5C223.137 187 219.637 188.75 216.137 188.75C212.637 188.75 210.387 185.75 210.387 182.5C210.387 179.25 211.637 177 212.637 174C213.637 170.5 213.637 146.25 213.637 141C213.637 119.25 213.637 97.5 213.637 75.5C213.637 66.75 213.637 58 213.887 49C214.137 31.5 214.887 20 228.137 7.25C231.387 4.24999 236.137 0.749992 240.387 0.749992C243.387 0.749992 245.137 2.99999 245.137 5.74999C245.137 10.75 242.137 13 241.637 16.25C240.637 23.5 240.887 31.5 240.887 39C240.887 47.25 240.887 55.5 240.887 63.75C240.887 83.75 240.887 103.75 240.637 123.5C240.637 134.5 240.887 145.75 239.637 156.5ZM332.725 144.5C329.975 159.5 326.975 173 314.475 183.5C311.475 186 307.725 188.5 303.475 188.5C300.475 188.5 298.975 186.25 298.975 183.5C298.975 178.5 301.725 175.5 303.475 171.25C304.975 168.25 305.475 163 306.225 159.5C313.725 122 318.975 83.75 326.975 46.25C330.475 30 332.975 16.75 346.475 5.49999C349.475 2.99999 353.725 0.749992 357.725 0.749992C362.975 0.749992 364.475 4.74999 365.975 8.99999C370.475 23 372.225 38.25 374.975 52.75C379.475 77.5 383.725 102.5 388.225 127.25C389.475 134.25 391.725 151.75 394.725 157.25C396.225 159.75 397.725 160.25 397.725 163.25C397.725 172.5 384.975 188.5 375.225 188.5C366.975 188.5 363.975 164.5 362.725 158.25C361.225 150.5 359.975 142.75 358.475 135C349.725 143.25 344.225 144.5 332.725 144.5ZM354.975 114C352.225 98.5 349.475 83 346.725 67.75C343.725 82.75 341.225 98 338.475 113.25C340.725 114.25 347.225 114 349.475 114C351.225 114 353.225 114 354.975 114ZM442.303 124.5C442.553 138.5 442.553 158.5 438.803 167.75C435.303 175.5 425.553 188.75 416.303 188.75C413.303 188.75 411.803 186.25 411.803 183.5C411.803 179.5 414.053 176 414.553 171.75C415.303 164.5 415.053 156.75 415.053 149.5C415.053 133.5 415.053 117.5 415.053 101.5C415.053 85 413.803 35.75 418.303 23.25C421.303 15 431.803 0.999989 441.553 0.999989C470.303 0.999989 493.553 11.75 493.553 43.75C493.553 64.75 484.803 84.25 471.053 99.25C483.803 111.25 484.553 133.5 489.803 149.25C490.553 151.5 491.803 154.5 493.303 156.5C495.553 159.25 498.053 159 498.053 163.25C498.053 172.5 485.303 188.75 475.553 188.75C473.553 188.75 471.803 187.5 470.303 186C456.553 173.25 461.303 137.75 444.803 125.75C444.053 125.25 443.303 124.75 442.303 124.5ZM442.303 77.75V95C443.553 94.75 445.053 94.5 446.303 94.25C461.803 89 466.303 79.75 466.303 64C466.303 48 458.053 37.5 442.553 33.5C442.303 48.25 442.303 63 442.303 77.75ZM516.865 152.5C516.865 118.75 516.115 84.75 517.115 51C517.365 39.25 516.865 26.75 523.365 16.25C526.865 10.25 535.615 0.749992 543.115 0.749992C546.115 0.749992 547.615 2.99999 547.615 5.74999C547.615 9.24999 545.865 11.5 545.115 14.5C544.615 16.25 544.615 18.75 544.615 20.75C543.865 34 543.865 47.25 543.865 60.75V118C543.865 126.25 543.865 134.5 543.615 142.5C543.365 158.75 542.615 170.75 529.865 182.5C526.615 185.25 522.365 188.5 517.865 188.5C514.865 188.5 513.365 186.25 513.365 183.5C513.365 180 515.365 177.75 515.865 174.75C517.115 167.5 516.865 159.75 516.865 152.5ZM592.176 156.5C601.176 154.5 610.676 154.5 619.926 154.5C625.926 154.5 638.676 154.75 638.676 163.25C638.676 172.5 625.926 188.5 616.176 188.5C612.676 188.5 613.176 186.25 610.676 185.5C608.676 185 605.176 184.75 602.926 184.75C595.176 184.75 586.676 184.75 579.176 186.5C575.676 187 572.176 188.75 568.676 188.75C565.176 188.75 562.926 185.75 562.926 182.5C562.926 179.25 564.176 177 565.176 174C566.176 170.5 566.176 146.25 566.176 141C566.176 119.25 566.176 97.5 566.176 75.5C566.176 66.75 566.176 58 566.426 49C566.676 31.5 567.426 20 580.676 7.25C583.926 4.24999 588.676 0.749992 592.926 0.749992C595.926 0.749992 597.676 2.99999 597.676 5.74999C597.676 10.75 594.676 13 594.176 16.25C593.176 23.5 593.426 31.5 593.426 39C593.426 47.25 593.426 55.5 593.426 63.75C593.426 83.75 593.426 103.75 593.176 123.5C593.176 134.5 593.426 145.75 592.176 156.5ZM685.264 144.5C682.514 159.5 679.514 173 667.014 183.5C664.014 186 660.264 188.5 656.014 188.5C653.014 188.5 651.514 186.25 651.514 183.5C651.514 178.5 654.264 175.5 656.014 171.25C657.514 168.25 658.014 163 658.764 159.5C666.264 122 671.514 83.75 679.514 46.25C683.014 30 685.514 16.75 699.014 5.49999C702.014 2.99999 706.264 0.749992 710.264 0.749992C715.514 0.749992 717.014 4.74999 718.514 8.99999C723.014 23 724.764 38.25 727.514 52.75C732.014 77.5 736.264 102.5 740.764 127.25C742.014 134.25 744.264 151.75 747.264 157.25C748.764 159.75 750.264 160.25 750.264 163.25C750.264 172.5 737.514 188.5 727.764 188.5C719.514 188.5 716.514 164.5 715.264 158.25C713.764 150.5 712.514 142.75 711.014 135C702.264 143.25 696.764 144.5 685.264 144.5ZM707.514 114C704.764 98.5 702.014 83 699.264 67.75C696.264 82.75 693.764 98 691.014 113.25C693.264 114.25 699.764 114 702.014 114C703.764 114 705.764 114 707.514 114Z" fill="white"/>
</g>
<defs>
<filter id="filter0_d_1252_2" x="0.75" y="0.75" width="749.514" height="193" filterUnits="userSpaceOnUse" color-interpolation-filters="sRGB">
<feFlood flood-opacity="0" result="BackgroundImageFix"/>
<feColorMatrix in="SourceAlpha" type="matrix" values="0 0 0 0 0 0 0 0 0 0 0 0 0 0 0 0 0 0 127 0" result="hardAlpha"/>
<feOffset dx="-6" dy="4"/>
<feGaussianBlur stdDeviation="0.5"/>
<feComposite in2="hardAlpha" operator="out"/>
<feColorMatrix type="matrix" values="0 0 0 0 0 0 0 0 0 0.411765 0 0 0 0 0.215686 0 0 0 1 0"/>
<feBlend mode="normal" in2="BackgroundImageFix" result="effect1_dropShadow_1252_2"/>
<feBlend mode="normal" in="SourceGraphic" in2="effect1_dropShadow_1252_2" result="shape"/>
</filter>
</defs>
</svg>
